<svg width="20" height="20" viewBox="0 0 20 20" fill="none" xmlns="http://www.w3.org/2000/svg">
<path d="M16.8361 4.37193L16.8364 4.37218C17.1925 4.72816 17.4751 5.15082 17.6678 5.61602C17.8606 6.08122 17.9598 6.57984 17.9598 7.08339C17.9598 7.58694 17.8606 8.08556 17.6678 8.55076C17.4751 9.01596 17.1925 9.43862 16.8364 9.7946L16.8363 9.79473L15.9529 10.6781L9.99994 16.6311L4.04693 10.6781L3.1636 9.79473C2.44451 9.07563 2.04053 8.10034 2.04053 7.08339C2.04053 6.06644 2.44451 5.09114 3.1636 4.37205C3.88269 3.65296 4.85799 3.24898 5.87494 3.24898C6.89188 3.24898 7.86718 3.65296 8.58627 4.37205L9.46961 5.25539C9.7625 5.54828 10.2374 5.54828 10.5303 5.25539L11.4136 4.37205L11.4137 4.37193C11.7697 4.01578 12.1924 3.73326 12.6576 3.5405C13.1228 3.34775 13.6214 3.24854 14.1249 3.24854C14.6285 3.24854 15.1271 3.34775 15.5923 3.5405C16.0575 3.73326 16.4802 4.01578 16.8361 4.37193Z" fill="#343737" stroke="#343737" stroke-width="1.5" stroke-linecap="round" stroke-linejoin="round"/>
</svg>
